HIERARCHY
ROOT hip
{
	OFFSET 0.000000 0.000000 0.000000 
	CHANNELS 6 Xposition Yposition Zposition Xrotation Zrotation Yrotation
	JOINT abdomen
	{
		OFFSET 0.000000 3.402643 0.000000 
		CHANNELS 3 Xrotation Zrotation Yrotation
		JOINT chest
		{
			OFFSET 0.000000 8.438565 -0.680529 
			CHANNELS 3 Xrotation Zrotation Yrotation
			JOINT neck
			{
				OFFSET 0.000000 10.207942 -0.272212 
				CHANNELS 3 Xrotation Zrotation Yrotation
				JOINT head
				{
					OFFSET 0.000000 3.130431 0.000000 
					CHANNELS 3 Xrotation Zrotation Yrotation
					End Site
					{
						OFFSET 0.000000 3.130435 0.000000 
					}
				}
			}
			JOINT lCollar
			{
				OFFSET 3.470700 6.669187 -0.816635 
				CHANNELS 3 Yrotation Zrotation Xrotation
				JOINT lShldr
				{
					OFFSET 3.198488 0.000000 0.000000 
					CHANNELS 3 Zrotation Yrotation Xrotation
					JOINT lForeArm
					{
						OFFSET 10.139888 0.000000 0.000000 
						CHANNELS 3 Yrotation Zrotation Xrotation
						JOINT lHand
						{
							OFFSET 8.370511 0.000000 0.000000 
							CHANNELS 3 Zrotation Yrotation Xrotation
							End Site
							{
								OFFSET 4.083176 0.000000 0.000000 
							}
						}
					}
				}
			}
			JOINT rCollar
			{
				OFFSET -3.470700 6.669187 -0.816635 
				CHANNELS 3 Yrotation Zrotation Xrotation
				JOINT rShldr
				{
					OFFSET -3.198488 0.000000 0.000000 
					CHANNELS 3 Zrotation Yrotation Xrotation
					JOINT rForeArm
					{
						OFFSET -10.139888 0.000000 0.000000 
						CHANNELS 3 Yrotation Zrotation Xrotation
						JOINT rHand
						{
							OFFSET -8.370511 0.000000 0.000000 
							CHANNELS 3 Zrotation Yrotation Xrotation
							End Site
							{
								OFFSET -4.083176 0.000000 0.000000 
							}
						}
					}
				}
			}
		}
	}
	JOINT lThigh
	{
		OFFSET 5.308129 -1.633274 1.361059 
		CHANNELS 3 Xrotation Zrotation Yrotation
		JOINT lShin
		{
			OFFSET -2.041588 -20.007561 0.000000 
			CHANNELS 3 Xrotation Zrotation Yrotation
			JOINT lFoot
			{
				OFFSET 0.000000 -19.190928 -1.224953 
				CHANNELS 3 Xrotation Yrotation Zrotation
				End Site
				{
					OFFSET 0.000000 -2.449906 4.627600 
				}
			}
		}
	}
	JOINT rThigh
	{
		OFFSET -5.308129 -1.633274 1.361059 
		CHANNELS 3 Xrotation Zrotation Yrotation
		JOINT rShin
		{
			OFFSET 2.041588 -20.007561 0.000000 
			CHANNELS 3 Xrotation Zrotation Yrotation
			JOINT rFoot
			{
				OFFSET 0.000000 -19.190928 -1.224953 
				CHANNELS 3 Xrotation Yrotation Zrotation
				End Site
				{
					OFFSET 0.000000 -2.449906 4.627600 
				}
			}
		}
	}
}
MOTION
Frames: 6
Frame Time: 0.016667
0.052922 49.688370 0.522765 -8.784423 0.136623 -2.148431 35.480743 -3.366458 2.288666 -13.417477 1.120292 4.014622 -9.985919 -6.119440 1.973563 0.909703 -1.347370 1.181773 -7.745518 -8.104153 -0.009580 -74.142998 8.942392 -14.712342 -28.697620 4.295877 57.236267 -14.446248 18.499220 -4.681536 14.491898 -1.760256 -0.009450 68.502304 1.635905 7.545862 52.538548 -2.644783 30.706406 -9.915314 -3.976501 0.674515 -9.535614 -2.420640 -0.456366 19.111572 -1.561911 -1.881541 8.552100 3.968104 -12.723125 1.151746 -8.767683 -4.879301 64.236519 -0.821955 3.923221 22.884239 9.656767 8.412082 
0.105778 49.742264 1.470363 -8.813536 -0.126861 -2.177751 35.390156 -3.161876 2.132128 -13.321433 1.159556 3.799630 -9.958125 -5.786782 2.198009 0.800270 -1.181265 1.445609 -7.589205 -7.733085 -0.009592 -74.434593 8.193443 -12.852344 -29.922979 4.242755 55.708225 -13.813124 18.337435 -4.431239 14.521226 -1.564949 -0.009450 68.647438 0.414919 8.618637 51.618881 -2.693120 31.359421 -8.252188 -4.091023 0.573105 -9.115396 -2.274667 -0.244639 20.924757 -1.513463 -1.998320 6.684444 3.918380 -12.587936 -1.338062 -8.708454 -4.738815 67.228561 -1.026696 3.967529 22.235310 8.087296 9.147470 
0.129113 49.770771 2.363786 -8.933602 -0.302508 -2.216869 35.500217 -3.162313 1.906783 -13.443207 1.471740 3.575547 -9.798152 -5.425320 2.304949 0.739302 -1.464243 1.641087 -7.589169 -7.518243 -0.009597 -74.458557 7.491253 -10.764696 -31.400862 4.140923 54.231014 -13.450912 18.365786 -4.308465 14.628908 -1.376953 0.000235 68.795967 -1.081648 9.327605 50.365185 -2.746763 32.036472 -7.068351 -4.110460 0.498856 -8.598813 -2.255436 -0.155849 22.638372 -1.450988 -2.135730 5.032710 3.979090 -12.456272 -3.962581 -8.421387 -4.279841 69.226006 -1.152337 4.014657 21.139269 6.948058 9.702063 
0.152450 49.799274 3.257156 -9.063580 -0.468387 -2.255944 35.610283 -3.162702 1.681977 -13.557353 1.784037 3.361089 -9.647009 -5.073650 2.411062 0.685854 -1.756910 1.836571 -7.579364 -7.293634 -0.009602 -74.515373 6.782048 -8.673269 -32.892597 4.080394 52.751858 -13.091735 18.391134 -4.194539 14.736329 -1.201172 0.000205 68.919952 -2.571023 10.026060 49.104462 -2.809558 32.724037 -5.883764 -4.129598 0.415053 -8.071435 -2.235864 -0.077502 24.371225 -1.382521 -2.251821 3.376198 4.038562 -12.331960 -6.606766 -8.118615 -3.834102 71.243263 -1.288825 4.040556 20.048203 5.848815 10.208520 
0.159556 49.819336 4.099183 -9.118259 -0.585510 -2.187685 35.772873 -3.211975 1.368870 -13.736444 2.242836 3.088539 -9.604558 -4.780556 2.518120 0.778275 -2.029998 2.012877 -7.579351 -7.215510 -0.009604 -74.334335 5.982024 -6.812871 -34.496876 3.999553 51.525715 -12.647515 18.477079 -4.076984 14.833812 -1.047422 -0.009439 69.100304 -4.022732 10.368809 47.563122 -2.840641 33.216488 -5.353502 -3.890171 0.354343 -7.512433 -2.264157 -0.089338 25.722502 -1.337854 -2.302968 2.058044 4.073325 -12.232924 -9.195167 -7.642798 -3.338416 72.325195 -1.347656 4.060998 18.903246 5.026043 10.599803 
0.166664 49.839397 4.941176 -9.182622 -0.712403 -2.119341 35.935436 -3.261155 1.066062 -13.920364 2.701840 2.806061 -9.570781 -4.487493 2.625204 0.869014 -2.303007 2.189264 -7.589103 -7.137382 -0.009605 -74.178864 5.171650 -4.959949 -36.107109 3.949968 50.291019 -12.200397 18.573912 -3.948193 14.921728 -0.891187 -0.009435 69.268341 -5.473196 10.710939 46.013638 -2.886041 33.706272 -4.823637 -3.649992 0.297440 -6.960806 -2.285042 -0.091273 27.062971 -1.288918 -2.371520 0.716528 4.103738 -12.144650 -11.772953 -7.145597 -2.896158 73.385551 -1.435398 4.107340 17.793768 4.207593 10.937188 
